<svg width="20" height="20" viewBox="0 0 20 20" fill="none" xmlns="http://www.w3.org/2000/svg">
<g id="out">
<path id="Combo shape" fill-rule="evenodd" clip-rule="evenodd" d="M5 0.25C2.37665 0.25 0.25 2.37665 0.25 5V15C0.25 17.6234 2.37665 19.75 5 19.75H9C11.6234 19.75 13.75 17.6234 13.75 15V14.5C13.75 14.0858 13.4142 13.75 13 13.75C12.5858 13.75 12.25 14.0858 12.25 14.5V15C12.25 16.7949 10.7949 18.25 9 18.25H5C3.20507 18.25 1.75 16.7949 1.75 15V5C1.75 3.20507 3.20507 1.75 5 1.75H9C10.7949 1.75 12.25 3.20507 12.25 5V5.5C12.25 5.91421 12.5858 6.25 13 6.25C13.4142 6.25 13.75 5.91421 13.75 5.5V5C13.75 2.37665 11.6234 0.25 9 0.25H5ZM16.5303 6.46967C16.2374 6.17678 15.7626 6.17678 15.4697 6.46967C15.1768 6.76256 15.1768 7.23744 15.4697 7.53033L17.1893 9.25H7C6.58579 9.25 6.25 9.58579 6.25 10C6.25 10.4142 6.58579 10.75 7 10.75H17.1893L15.4697 12.4697C15.1768 12.7626 15.1768 13.2374 15.4697 13.5303C15.7626 13.8232 16.2374 13.8232 16.5303 13.5303L19.5303 10.5303C19.8232 10.2374 19.8232 9.76256 19.5303 9.46967L16.5303 6.46967Z" fill="#28303F"/>
</g>
</svg>
