<svg width="24" height="24" viewBox="0 0 24 24" fill="none" xmlns="http://www.w3.org/2000/svg">
<path d="M9.29232 18.6976L9.05585 19.0411L9.35137 19.3354L12.8519 22.8212L12.2053 23.4575L8.76232 20.0175L8.46854 19.7239L8.12608 19.9588C7.40859 20.451 6.57118 20.7402 5.70256 20.7956C4.83394 20.8511 3.9665 20.6707 3.19214 20.2737L3.18452 20.2698L3.17677 20.2662C2.90159 20.1368 2.6403 19.9798 2.39691 19.7977L2.02853 19.4965L1.86627 19.3344L1.8663 19.3344L1.86159 19.3298C1.53557 19.0125 1.25866 18.6485 1.03996 18.2497C0.891086 17.9776 0.767881 17.6922 0.671934 17.3972L0.603176 17.1568C0.563312 17.0109 0.532663 16.8627 0.511409 16.713C0.495824 16.4741 0.496206 16.2344 0.512555 15.9955L0.513685 15.979L0.513721 15.9625C0.515347 15.2094 0.693993 14.4672 1.03529 13.7957C1.37658 13.1243 1.87099 12.5422 2.47871 12.0966C3.08643 11.6509 3.79046 11.3541 4.53407 11.23C5.27769 11.106 6.04007 11.1582 6.75978 11.3825C7.47949 11.6068 8.13636 11.9968 8.6775 12.5211C9.21864 13.0455 9.62891 13.6895 9.87529 14.4012C10.1217 15.1129 10.1973 15.8725 10.096 16.6188C9.99476 17.365 9.71948 18.0771 9.29232 18.6976ZM3.07414 19.2704C3.74803 19.7203 4.54027 19.9604 5.35067 19.9604C6.43737 19.9604 7.47966 19.5291 8.2482 18.7612C9.01676 17.9933 9.44861 16.9517 9.44861 15.8655C9.44861 15.0555 9.20822 14.2638 8.75787 13.5904C8.30754 12.917 7.6675 12.3922 6.91875 12.0823C6.17 11.7724 5.34612 11.6913 4.55128 11.8493C3.75644 12.0073 3.02627 12.3972 2.45314 12.9698C1.88 13.5425 1.48964 14.2722 1.33148 15.0666C1.17333 15.861 1.2545 16.6844 1.56472 17.4327C1.87494 18.181 2.40024 18.8205 3.07414 19.2704Z" stroke="black"/>
<path d="M12.6869 16.7261C12.7365 16.3716 12.7598 16.0135 12.7564 15.6547H12.7564L12.7563 15.647C12.7177 13.6973 11.908 11.8423 10.5046 10.4876C9.10146 9.1331 7.21888 8.38879 5.26833 8.41709C4.74865 8.42331 4.23182 8.48188 3.72559 8.59138V4.59656H23.1361H23.1361C23.1378 4.59656 23.1393 4.59722 23.1403 4.59819L23.1416 4.59683L23.1403 4.5982C23.141 4.59891 23.1414 4.59975 23.1416 4.60059V16.7762C23.1416 16.7773 23.1412 16.7785 23.1402 16.7795C23.1398 16.78 23.1392 16.7803 23.1386 16.7806C23.1379 16.7809 23.1372 16.7811 23.1364 16.7812C23.1363 16.7812 23.1362 16.7812 23.1361 16.7812L12.6869 16.7261Z" stroke="black" stroke-width="1.5"/>
<path fill-rule="evenodd" clip-rule="evenodd" d="M16.3004 3.84657V2.07308H10.9755V3.84657H9.18848V1.04254C9.19162 0.844403 9.27262 0.655448 9.41397 0.516452C9.55533 0.377456 9.74572 0.299566 9.94404 0.299591H17.3318C17.4295 0.299591 17.5262 0.318808 17.6164 0.356145C17.7066 0.393481 17.7886 0.448206 17.8576 0.517196C17.9267 0.586185 17.9814 0.668086 18.0188 0.758225C18.0562 0.848364 18.0754 0.944973 18.0754 1.04254V3.84657H16.3004Z" fill="black"/>
<path fill-rule="evenodd" clip-rule="evenodd" d="M16.3008 3.84656L18.0758 3.28336V3.84656H16.3008Z" fill="#4E505D"/>
<path fill-rule="evenodd" clip-rule="evenodd" d="M9.17676 3.84658L10.9637 3.19949V3.84658H9.17676Z" fill="#4E505D"/>
</svg>
